<svg xmlns="http://www.w3.org/2000/svg" width="128" height="128" viewBox="0 0 128 128">
  <defs>
    <linearGradient id="bg" x1="0%" y1="0%" x2="100%" y2="100%">
      <stop offset="0%" stop-color="#6366f1"/>
      <stop offset="100%" stop-color="#a855f7"/>
    </linearGradient>
  </defs>
  <rect width="128" height="128" rx="28" fill="url(#bg)"/>
  <path d="M64 26 L96 40 V66 C96 88 64 106 64 106 S32 88 32 66 V40 Z"
        fill="rgba(255,255,255,0.1)" stroke="rgba(255,255,255,0.4)" stroke-width="3"/>
  <g fill="none" stroke="#fff" stroke-width="2.5" stroke-linecap="round">
    <path d="M64 48 C54 48 48 56 48 64"/>
    <path d="M64 48 C74 48 80 56 80 64"/>
    <path d="M52 76 C52 62 56 54 64 54 C72 54 76 62 76 76"/>
    <path d="M58 82 C58 68 60 62 64 62 C68 62 70 68 70 82"/>
    <path d="M64 70 L64 88"/>
  </g>
</svg>
